<svg xmlns="http://www.w3.org/2000/svg" width="89.1" height="57.868" viewBox="0 0 89.1 57.868">
  <path id="Tracé_1794" data-name="Tracé 1794" d="M13314.785-1755.132h0a26.91,26.91,0,0,1-7.862-1.209,32.236,32.236,0,0,1-6.209-2.659,30.458,30.458,0,0,1-5.543-3.867l-4.183,3.828a23.557,23.557,0,0,1-4.212,1.674,39.945,39.945,0,0,1-11.633,1.675,46.4,46.4,0,0,1-7.829-.68,17.032,17.032,0,0,1-8.512-3.956,18.808,18.808,0,0,1-4.583-6.275,25.209,25.209,0,0,1-2.216-8.362h11.714s0,.2.439,3.115c.424,2.826,3.656,5.23,3.793,5.331a27.672,27.672,0,0,0,9.076,1.791c3.479,0,6.146-.992,7.924-2.949,1.488-1.636,2.082-3.255,1.766-4.812-.6-2.939-4.311-4.692-4.348-4.709-.087-.029-8.933-3.037-15.572-4.9a23.664,23.664,0,0,1-7.666-3.77,17.622,17.622,0,0,1-2.658-2.369,19.346,19.346,0,0,1-1.7-4.175,15.442,15.442,0,0,1,.02-9.132c1.435-4.135,4.993-7.323,10.578-9.475a28.1,28.1,0,0,1,10.1-1.987,23.672,23.672,0,0,1,7.987,1.381,25.243,25.243,0,0,1,5.88,3.038,23.5,23.5,0,0,1,4.87,4.419l6.486-5.6a14.526,14.526,0,0,1,3.159-1.39,30.625,30.625,0,0,1,9.531-1.389,46.947,46.947,0,0,1,9.733,1.088,18.948,18.948,0,0,1,9.127,4.813,26.268,26.268,0,0,1,5.413,7.467,36.577,36.577,0,0,1,3.26,9.879,40.527,40.527,0,0,1-.668,12.236,30.842,30.842,0,0,1-4.062,10.289,24.387,24.387,0,0,1-9.419,8.62A25.731,25.731,0,0,1,13314.785-1755.132Zm-.127-47.515a20.189,20.189,0,0,0-6.964,1.592,12.521,12.521,0,0,0-7.9,10.6,45.4,45.4,0,0,0,.11,12.471,11.147,11.147,0,0,0,1.045,3.459,15.278,15.278,0,0,0,2.658,4.606,12.475,12.475,0,0,0,9.826,4.606,16.9,16.9,0,0,0,3.179-.315,14.39,14.39,0,0,0,10.767-8.654,20.623,20.623,0,0,0,1.69-6.918,19,19,0,0,0,.278-4.616,20.288,20.288,0,0,0-3.124-9.891,14.591,14.591,0,0,0-11.556-6.942Zm-40.676-.606a15.157,15.157,0,0,0-3.733.428c-.04.005-4.006.568-4.006,3.115a8.653,8.653,0,0,1-.248,1.74c-.437,2.075-.888,4.219,4.254,5.47,6.551,1.592,14.43,3.892,14.507,3.915a5.379,5.379,0,0,0,3.058-3.335c.439-1.836-.41-3.977-2.524-6.364A14.725,14.725,0,0,0,13273.982-1803.253Z" transform="translate(-13252.001 1812.999)" fill="#fff"/>
</svg>
